<?xml version="1.0" standalone="no"?><!DOCTYPE svg PUBLIC "-//W3C//DTD SVG 1.1//EN" "http://www.w3.org/Graphics/SVG/1.1/DTD/svg11.dtd"><svg t="1525945920779" class="icon" style="" viewBox="0 0 1024 1024" version="1.1" xmlns="http://www.w3.org/2000/svg" p-id="18828" xmlns:xlink="http://www.w3.org/1999/xlink" width="128" height="128"><defs><style type="text/css"></style></defs><path d="M906 615.1c-0.9-95.5-30.4-199.8-97.3-278.5 4.3-44.5 11.1-140-7.2-155.3-19.1-16.1-115.3 32.7-152.2 52.1-0.3-0.4-65.3-12.9-137.3-12.9S376 233 375.8 233c-36.1-19-134-68-153.4-51.7-18.7 15.8-11.1 115.7-6.8 158.6-65.9 78.3-96.6 181-97.6 275.2V676c0 33.1 27.1 60.2 60.1 60.2h667.8c33.1 0 60.1-27.1 60.1-60.2v-60.1-0.8z" fill="#FFFFFF" p-id="18829"></path><path d="M845.9 746.1H178.1c-38.7 0-70.1-31.5-70.1-70.2v-60.1-1.3c1.1-103 36.5-204.1 97.2-278-2.2-23.5-4.7-56.2-4.8-86.2-0.2-56.3 8.2-70.6 15.6-76.8 8-6.7 24.3-11.5 80.6 11 30.4 12.2 62.6 28.4 80.8 37.9 15.1-2.7 72.2-12 134.6-12 38 0 73.6 3.5 96.8 6.4 13.7 1.7 24.3 3.4 30.7 4.5 3.5 0.6 6.3 1.1 8.4 1.5 119.4-62.4 148.3-59.1 160-49.2 7.2 6.1 15.5 20 15.6 74.4 0 29.5-2.3 62-4.5 85.4 31.4 37.9 55.8 82.6 72.5 133.1 15.5 46.7 23.9 97.9 24.4 148.2V676c0.1 38.7-31.3 70.1-70 70.1zM128 616.1V676c0 27.7 22.5 50.2 50.1 50.2h667.8c27.6 0 50.1-22.5 50.1-50.2v-59.9-0.8c-0.4-48.4-8.5-97.7-23.4-142.5-16.4-49.4-40.4-93-71.5-129.7-1.7-2.1-2.6-4.7-2.3-7.4 10.1-105.1 2-142-3.6-146.7-0.1-0.1-9.2-6.1-60 14.7-22.5 9.2-49.8 22.2-81.1 38.6-2.4 1.3-5.2 1.5-7.7 0.7-7.2-1.7-68-12.4-134.3-12.4-66.9 0-127.5 11-134.2 12.3-0.6 0.1-0.9 0.1-0.9 0.1-2 0.2-4-0.1-5.8-1.1-17-8.9-50.1-25.8-81.3-38.4-51.6-20.8-60.8-14.6-60.9-14.5-0.9 0.7-8.6 8.8-8.5 61.4 0.1 31.1 2.8 65.3 5.1 88.5 0.3 2.7-0.6 5.4-2.3 7.4-59.5 70.8-94.2 168.8-95.2 269-0.1 0.2-0.1 0.5-0.1 0.8z m768 0.1zM641.3 239.3c1.4 2 3.2 2.9 4.3 3.3-1.7-0.6-3.2-1.7-4.3-3.3z" fill="#543630" p-id="18830"></path><path d="M770.1 313.5s15.8-88 6.3-95.3c-12.1-9.3-88.5 38.9-88.5 38.9s47.9 25.9 82.2 56.4z" fill="#FFD7E1" p-id="18831"></path><path d="M770.1 323.5c-2.4 0-4.8-0.9-6.7-2.5-33-29.4-79.8-54.8-80.2-55.1-3.1-1.7-5.1-4.9-5.2-8.5s1.6-6.9 4.6-8.8c0.8-0.5 19.6-12.4 40.3-23.3 38.9-20.6 51.9-20.9 59.5-15.1 5.2 4 7.2 11.3 6.9 26.1-0.1 8.6-1 19.8-2.7 33.5-2.8 22.9-6.6 44.6-6.8 45.5-0.6 3.6-3.2 6.5-6.6 7.7-0.9 0.3-2 0.5-3.1 0.5z m-62.6-66.7c13.9 8.3 35.5 21.9 55.6 37.8 4.4-28.1 7.3-56.8 6.1-67.4-9.4 1.7-33.2 12.7-61.7 29.6z m64.6-29.8zM253.9 313.5s-15.8-88-6.3-95.3c12.1-9.3 88.5 38.9 88.5 38.9s-47.9 25.9-82.2 56.4z" fill="#FFD7E1" p-id="18832"></path><path d="M253.9 323.5c-1.1 0-2.2-0.2-3.3-0.5-3.4-1.2-5.9-4.1-6.6-7.7-0.2-0.9-4-22.6-6.8-45.5-1.6-13.7-2.6-24.9-2.7-33.5-0.2-14.7 1.7-22.1 6.9-26.1 7.6-5.8 20.6-5.5 59.5 15.1 20.7 11 39.6 22.8 40.3 23.3 3 1.9 4.8 5.2 4.7 8.8s-2.1 6.8-5.2 8.5c-0.5 0.3-47.2 25.7-80.2 55.1-1.8 1.6-4.2 2.5-6.6 2.5z m0.9-96.3c-1.2 10.6 1.7 39.3 6.1 67.4 20.1-15.9 41.6-29.5 55.6-37.8-28.5-16.9-52.3-27.9-61.7-29.6z m-2.9-0.2z m3.6-2.9z" fill="#FFD7E1" p-id="18833"></path><path d="M427.8 487.7c0.9 1.9 1 4.1 0.3 6.1-3.9 11.3-20.3 49.6-63.8 49.6-52 0-68.9-39.7-72.5-50.2-0.6-1.6-0.6-3.4-0.1-5.1 3.2-10.6 18.7-50.2 72.6-50.2 38.7 0.1 58.6 38.7 63.5 49.8z" fill="#D7F3F4" p-id="18834"></path><path d="M364.3 553.5c-46.2 0-72.6-29.5-81.9-57-1.2-3.6-1.3-7.5-0.2-11.2 8.3-27.7 34.3-57.3 82.1-57.3 19.1 0 37 8.2 51.7 23.8 11.2 11.9 17.9 25.1 20.9 31.9 1.9 4.3 2.1 9 0.6 13.4-4.5 13.2-23.3 56.4-73.2 56.4z m-62.8-63c3.8 10.7 18.8 42.9 62.8 42.9 35.9 0 50.3-31.6 54.1-42.3-4.9-10.9-22.2-43.2-54.1-43.2-11.7 0.1-50.6 3.2-62.8 42.6z m117.2 1.3z" fill="#543630" p-id="18835"></path><path d="M339.1 492.3a20.6 32 0 1 0 41.2 0 20.6 32 0 1 0-41.2 0Z" fill="#543630" p-id="18836"></path><path d="M596.2 487.7c-0.9 1.9-1 4.1-0.3 6.1 3.9 11.3 20.3 49.6 63.8 49.6 52 0 68.9-39.7 72.5-50.2 0.6-1.6 0.6-3.4 0.1-5.1-3.2-10.6-18.7-50.2-72.6-50.2-38.7 0.1-58.6 38.7-63.5 49.8z" fill="#D7F3F4" p-id="18837"></path><path d="M659.7 553.5c-49.9 0-68.6-43.1-73.2-56.4-1.5-4.4-1.3-9.2 0.6-13.4 5.8-13.1 28.1-55.7 72.6-55.7 47.8 0 73.8 29.6 82.1 57.3 1.1 3.7 1 7.5-0.2 11.2-9.3 27.5-35.8 57-81.9 57z m-54.1-62.3c3.8 10.7 18.1 42.3 54.1 42.3 44.1 0 59.1-32.2 62.8-42.9-3.3-10.7-17.2-42.6-62.8-42.6-13.7 0-26.2 5.9-37.1 17.6-9.2 9.6-14.8 20.7-17 25.6z m-9.4-3.5z" fill="#543630" p-id="18838"></path><path d="M643.7 492.3a20.6 32 0 1 0 41.2 0 20.6 32 0 1 0-41.2 0Z" fill="#543630" p-id="18839"></path><path d="M490.3 513.3a21.7 16.3 0 1 0 43.4 0 21.7 16.3 0 1 0-43.4 0Z" fill="#BB7A53" p-id="18840"></path><path d="M512 539.7c-17.8 0-31.7-11.6-31.7-26.3 0-14.8 13.9-26.3 31.7-26.3s31.7 11.6 31.7 26.3c0 14.7-13.9 26.3-31.7 26.3z m0-32.7c-7 0-11.7 3.8-11.7 6.3s4.7 6.3 11.7 6.3 11.7-3.8 11.7-6.3S519 507 512 507z" fill="#543630" p-id="18841"></path><path d="M517 588.2h-10c-2.8 0-5-2.2-5-5v-50c0-2.8 2.2-5 5-5h10c2.8 0 5 2.2 5 5v50c0 2.8-2.2 5-5 5z" fill="#543630" p-id="18842"></path><path d="M517.3 592.1l-14.1 14.2c-3.9 3.9-10.3 3.9-14.1 0-3.9-3.9-3.9-10.2 0-14.1l14.1-14.2c3.9-3.9 10.3-3.9 14.1 0 3.9 3.8 3.9 10.2 0 14.1z" fill="#543630" p-id="18843"></path><path d="M506.8 592.1l14.1 14.2c3.9 3.9 10.3 3.9 14.1 0 3.9-3.9 3.9-10.2 0-14.1L520.9 578c-3.9-3.9-10.3-3.9-14.1 0-3.9 3.8-3.9 10.2 0 14.1z" fill="#543630" p-id="18844"></path><path d="M840.9 471.1l-43.4 11.5c-5.3 1.4-8.5 6.9-7.1 12.2 1.4 5.3 6.9 8.5 12.2 7.1l43.4-11.5c5.3-1.4 8.5-6.9 7.1-12.2-1.4-5.3-6.9-8.5-12.2-7.1z" fill="#543630" p-id="18845"></path><path d="M856.5 528.6l-44.3 2.9c-5.5 0.4-9.7 5.1-9.3 10.6 0.4 5.5 5.1 9.7 10.6 9.3l44.3-2.9c5.5-0.4 9.7-5.1 9.3-10.6-0.3-5.5-5.1-9.7-10.6-9.3z" fill="#543630" p-id="18846"></path><path d="M863.2 587.8l-49.5-5.2c-5.5-0.6-10.4 3.4-11 8.9-0.6 5.5 3.4 10.4 8.9 11l49.5 5.2c5.5 0.6 10.4-3.4 11-8.9 0.6-5.5-3.5-10.4-8.9-11z" fill="#543630" p-id="18847"></path><path d="M185.1 471.1l43.4 11.5c5.3 1.4 8.5 6.9 7.1 12.2-1.4 5.3-6.9 8.5-12.2 7.1L180 490.4c-5.3-1.4-8.5-6.9-7.1-12.2 1.3-5.3 6.8-8.5 12.2-7.1z" fill="#543630" p-id="18848"></path><path d="M169.4 528.6l44.3 2.9c5.5 0.4 9.7 5.1 9.3 10.6-0.4 5.5-5.1 9.7-10.6 9.3l-44.3-2.9c-5.5-0.4-9.7-5.1-9.3-10.6 0.3-5.5 5.1-9.7 10.6-9.3z" fill="#543630" p-id="18849"></path><path d="M162.8 587.8l49.5-5.2c5.5-0.6 10.4 3.4 11 8.9 0.6 5.5-3.4 10.4-8.9 11l-49.5 5.2c-5.5 0.6-10.4-3.4-11-8.9-0.6-5.5 3.4-10.4 8.9-11z" fill="#543630" p-id="18850"></path><path d="M895.2 727.5s-87.8 62.9-383.8 62.9-382.5-62.9-382.5-62.9-10.2-5.6-11.7-11.4L107 656.4c0-6.3 5.3-11.4 11.7-11.4 0 0 84.2 83.5 392.6 83.5s394-83.5 394-83.5c6.4 0 11.7 5.1 11.7 11.4l-10.1 59.8c-0.7 4.5-11.7 11.3-11.7 11.3z" fill="#FF5F67" p-id="18851"></path><path d="M511.3 800.4c-287.2 0-379.4-58.6-387.9-64.4-3.8-2.1-13.7-8.6-16-17.3-0.1-0.3-0.1-0.6-0.2-0.9L97.1 658c-0.1-0.5-0.1-1.1-0.1-1.7 0-11.8 9.7-21.4 21.7-21.4 2.6 0 5.2 1 7 2.9 0.2 0.2 21.4 20.3 79.2 40.2 53.5 18.4 150.1 40.4 306.4 40.4 86.3 0 209.6-7 307.1-40.4 58.1-19.9 79.7-40.1 79.9-40.3 1.9-1.8 4.3-2.8 6.9-2.8 12 0 21.7 9.6 21.7 21.4 0 0.6 0 1.1-0.1 1.7l-10.1 59.8c-1.2 7.4-9.3 13.9-16.1 18.1-6.8 4.8-99.1 64.5-389.3 64.5z m-384.5-87c1 1.4 4.2 3.9 6.9 5.4 0.3 0.2 0.7 0.4 1 0.7 0.2 0.1 22 15.4 79.2 30.5 95.6 25.2 214.5 30.5 297.5 30.5s202.1-5.3 298.2-30.5c57.4-15.1 79.6-30.4 79.8-30.5 0.2-0.1 0.3-0.2 0.5-0.3 2.8-1.7 6.1-4.3 7.3-5.8l9.5-56.6c-9.9 7.6-34.2 23.7-79.5 39.4-55.4 19.3-155.2 42.3-315.9 42.3-88.7 0-215.4-7.3-315.3-42.3-44.9-15.7-69-31.7-78.9-39.4l9.7 56.6z" fill="#543630" p-id="18852"></path><path d="M588.2 761.5l70.5 53.4c5.2 3.7 5.5 11.3 0.7 15.4l-48 45.4c-4.4 3.8-11.1 2.9-14.4-1.9l-57.6-84.5 48.8-27.8z" fill="#FF5F67" p-id="18853"></path><path d="M605.1 888c-0.9 0-1.7-0.1-2.6-0.2-5.6-0.7-10.6-3.8-13.7-8.5l-57.6-84.5c-1.6-2.3-2.1-5.2-1.5-7.9 0.6-2.7 2.4-5.1 4.8-6.4l48.7-27.7c3.5-2 7.8-1.7 11 0.7l70.4 53.3c4.9 3.5 7.9 9 8.2 15.1 0.3 6-2.1 11.8-6.6 15.7l-47.9 45.2-0.3 0.3c-3.6 3.2-8.2 4.9-12.9 4.9z m-51.3-95.5l51.3 75.3 47.4-44.8 0.1-0.1-65.3-49.4-33.5 19z" fill="#543630" p-id="18854"></path><path d="M627.2 810.5c-2.3 5.7-8.9 8.5-14.8 6.6l-92.4-29c-4.5-1-7.9-5.1-8.4-10.1l-3.1-32c-0.6-6.3 3.5-11.8 9.2-12.4l98.3-22.8c6.3-1.5 12.8 2.6 13.8 9v0.2c0.1 0.4 0.1 0.8 0.1 1.2l-1.9 84.6c0.2 1.5-0.1 3.1-0.8 4.7z" fill="#FF5F67" p-id="18855"></path><path d="M616.1 827.7c-2.2 0-4.5-0.3-6.7-1l-92.1-29c-8.5-2.1-14.8-9.6-15.7-18.8l-3.1-32c-1.1-11.5 6.7-21.7 17.4-23.2l97.8-22.6c5.8-1.3 12-0.2 16.9 3.1 4.8 3.2 8.1 8.4 9 14l0.1 0.3c0.1 0.9 0.2 1.8 0.2 2.8l-1.8 84.1c0.2 3-0.3 6-1.5 8.9-3.5 8.3-11.8 13.4-20.5 13.4z m-97.3-84.3c-0.2 0.2-0.5 0.7-0.4 1.5l3.1 32c0.1 0.8 0.5 1.3 0.7 1.3 0.3 0.1 0.5 0.1 0.8 0.2l92.4 29.1c1 0.3 2.2-0.1 2.6-0.9 0-0.1 0.1-0.2 0.1-0.2v-1.1l1.8-84.3c0-0.1-0.1-0.3-0.4-0.4-0.2-0.1-0.6-0.4-1.2-0.2L520 743.2c-0.4 0.1-0.8 0.2-1.2 0.2z m99.3 63.2z m1.8-85.8z" fill="#543630" p-id="18856"></path><path d="M435.8 761.5l-70.5 53.4c-5.2 3.7-5.5 11.3-0.7 15.4l48 45.4c4.4 3.8 11.1 2.9 14.4-1.9l57.6-84.5-48.8-27.8z" fill="#FF5F67" p-id="18857"></path><path d="M418.9 888c-4.7 0-9.3-1.7-12.9-4.8l-0.3-0.3-47.9-45.2c-4.5-4-6.9-9.7-6.6-15.7 0.3-6.1 3.3-11.6 8.2-15.1l70.4-53.3c3.2-2.4 7.5-2.7 11-0.7l48.7 27.7c2.4 1.4 4.2 3.7 4.8 6.4 0.6 2.7 0.1 5.6-1.5 7.9l-57.6 84.5c-3.2 4.6-8.2 7.7-13.7 8.5-0.9 0-1.7 0.1-2.6 0.1z m-47.6-65.1l0.1 0.1 47.4 44.8 51.3-75.3-33.5-19.1-65.3 49.5z m-6-8z" fill="#543630" p-id="18858"></path><path d="M396.8 810.5c2.3 5.7 8.9 8.5 14.8 6.6L504 788c4.5-1 7.9-5.1 8.4-10.1l3.1-32c0.6-6.3-3.5-11.8-9.2-12.4L408 710.7c-6.3-1.5-12.8 2.6-13.8 9v0.2c-0.1 0.4-0.1 0.8-0.1 1.2l1.9 84.6c-0.2 1.6 0.1 3.2 0.8 4.8z" fill="#FF5F67" p-id="18859"></path><path d="M407.9 827.7c-8.7 0-17-5.1-20.4-13.4-1.2-2.9-1.7-6-1.5-8.9l-1.8-84.1c0-1 0-1.9 0.2-2.8v-0.3c0.9-5.7 4.2-10.8 9-14 4.9-3.3 11.1-4.5 16.9-3.1l97.8 22.6c10.8 1.5 18.6 11.8 17.4 23.2l-3.1 32c-0.9 9.2-7.2 16.7-15.7 18.8l-92.1 29c-2.2 0.7-4.5 1-6.7 1z m-1.9-21.2s0 0.1 0.1 0.2c0.3 0.8 1.5 1.2 2.6 0.9l92.4-29.1c0.3-0.1 0.5-0.2 0.8-0.2 0.1-0.1 0.5-0.5 0.6-1.3l3.1-32c0.1-0.8-0.2-1.4-0.4-1.5-0.4 0-0.8-0.1-1.1-0.2l-98.3-22.8c-0.6-0.1-1.1 0.1-1.2 0.2l-0.4 0.4 1.8 84.3v1.1z m-0.1 0.1z m0-0.1z" fill="#543630" p-id="18860"></path><path d="M574 771.6H450c-5.5 0-10-4.5-10-10s4.5-10 10-10h124c5.5 0 10 4.5 10 10s-4.5 10-10 10z" fill="#543630" p-id="18861"></path><path d="M527.8 796.1h-31.6c-5.5 0-10-4.5-10-10v-49.7c0-5.5 4.5-10 10-10h31.6c5.5 0 10 4.5 10 10v49.7c0 5.5-4.5 10-10 10z" fill="#FF5F67" p-id="18862"></path><path d="M527.8 806.1h-31.6c-11 0-20-9-20-20v-49.7c0-11 9-20 20-20h31.6c11 0 20 9 20 20v49.7c0 11-9 20-20 20z m-31.6-69.7v49.7h31.6v-49.7h-31.6z" fill="#543630" p-id="18863"></path></svg>