<?xml version="1.0" standalone="no"?><!DOCTYPE svg PUBLIC "-//W3C//DTD SVG 1.1//EN" "http://www.w3.org/Graphics/SVG/1.1/DTD/svg11.dtd"><svg t="1526120033073" class="icon" style="" viewBox="0 0 1024 1024" version="1.1" xmlns="http://www.w3.org/2000/svg" p-id="1380" xmlns:xlink="http://www.w3.org/1999/xlink" width="128" height="128"><defs><style type="text/css"></style></defs><path d="M512 449.142857h414.285714q6.857143 38.285714 6.857143 73.142857 0 124-52 221.428572T732.857143 896 512 950.857143q-89.714286 0-170.857143-34.571429T201.142857 822.857143 107.714286 682.857143 73.142857 512t34.571429-170.857143T201.142857 201.142857t140-93.428571T512 73.142857q171.428571 0 294.285714 114.857143l-119.428571 114.857143Q616.571429 234.857143 512 234.857143q-73.714286 0-136.285714 37.142857T276.571429 372.857143 240 512t36.571429 139.142857T375.714286 752t136.285714 37.142857q49.714286 0 91.428571-13.714286t68.571429-34.285714 46.857143-46.857143 29.428571-49.714285 12.857143-44.571429H512V449.142857z" p-id="1381" fill="#ffffff"></path></svg>