<?xml version="1.0" standalone="no"?><!DOCTYPE svg PUBLIC "-//W3C//DTD SVG 1.1//EN" "http://www.w3.org/Graphics/SVG/1.1/DTD/svg11.dtd"><svg t="1525946170975" class="icon" style="" viewBox="0 0 1024 1024" version="1.1" xmlns="http://www.w3.org/2000/svg" p-id="6789" xmlns:xlink="http://www.w3.org/1999/xlink" width="128" height="128"><defs><style type="text/css"></style></defs><path d="M512 448a21.333333 21.333333 0 0 1-21.333333-21.333333V128a21.333333 21.333333 0 0 1 42.666666 0v298.666667a21.333333 21.333333 0 0 1-21.333333 21.333333z" fill="#C6C6C6" p-id="6790"></path><path d="M768 874.666667a234.624 234.624 0 0 1-208.810667-128h-94.378666A234.624 234.624 0 0 1 256 874.666667C126.613333 874.666667 21.333333 769.386667 21.333333 640s105.28-234.666667 234.666667-234.666667h512c129.386667 0 234.666667 105.28 234.666667 234.666667s-105.28 234.666667-234.666667 234.666667z" fill="#E6E6E6" p-id="6791"></path><path d="M256 640m-149.333333 0a149.333333 149.333333 0 1 0 298.666666 0 149.333333 149.333333 0 1 0-298.666666 0Z" fill="#C6C6C6" p-id="6792"></path><path d="M341.333333 618.666667h-64v-64a21.333333 21.333333 0 0 0-42.666666 0v64H170.666667a21.333333 21.333333 0 0 0 0 42.666666h64v64a21.333333 21.333333 0 0 0 42.666666 0v-64h64a21.333333 21.333333 0 0 0 0-42.666666z" fill="#5B5B5B" p-id="6793"></path><path d="M661.333333 640m-42.666666 0a42.666667 42.666667 0 1 0 85.333333 0 42.666667 42.666667 0 1 0-85.333333 0Z" fill="#72C472" p-id="6794"></path><path d="M874.666667 640m-42.666667 0a42.666667 42.666667 0 1 0 85.333333 0 42.666667 42.666667 0 1 0-85.333333 0Z" fill="#E86C60" p-id="6795"></path><path d="M768 533.333333m-42.666667 0a42.666667 42.666667 0 1 0 85.333334 0 42.666667 42.666667 0 1 0-85.333334 0Z" fill="#458BC4" p-id="6796"></path><path d="M768 746.666667m-42.666667 0a42.666667 42.666667 0 1 0 85.333334 0 42.666667 42.666667 0 1 0-85.333334 0Z" fill="#EFD358" p-id="6797"></path></svg>